<?xml version="1.0" ?><!DOCTYPE svg  PUBLIC '-//W3C//DTD SVG 1.1//EN'  'http://www.w3.org/Graphics/SVG/1.1/DTD/svg11.dtd'><svg enable-background="new 0 0 55.125 55" height="55px" version="1.1" viewBox="0 0 55.125 55" width="55.125px" x="0px" xml:space="preserve" xmlns="http://www.w3.org/2000/svg" xmlns:xlink="http://www.w3.org/1999/xlink" y="0px"><g display="block" id="domain-freq">
	<g id="Freq_Domain_1_">
		<g>
			<path d="M55,45c0,5.5-4.5,10-10,10H10C4.5,55,0,50.5,0,45V10C0,4.5,4.5,0,10,0h35c5.5,0,10,4.5,10,10V45z" fill="#808284"/>
		</g>
		<path d="M51,46.506c0,0-1.982,0-7.779,0S40.018,10,35.289,10    c-5.686,0-3.891,36.584-9.84,36.584S21.31,20.32,17.898,20.32c-3.428,0-2.877,26.033-8.695,26.033H6" fill="none" stroke="#FFFFFF" stroke-width="3.5"/>
		<line fill="none" stroke="#C6C8CA" stroke-linecap="round" stroke-width="2.25" x1="6" x2="51" y1="50" y2="50"/>
		<line fill="none" stroke="#C6C8CA" stroke-linecap="round" stroke-width="2.25" x1="6" x2="6" y1="5" y2="50"/>
	</g>
</g></svg>