<?xml version="1.0" encoding="UTF-8" standalone="no"?>
<svg
   xmlns:dc="http://purl.org/dc/elements/1.1/"
   xmlns:cc="http://creativecommons.org/ns#"
   xmlns:rdf="http://www.w3.org/1999/02/22-rdf-syntax-ns#"
   xmlns:svg="http://www.w3.org/2000/svg"
   xmlns="http://www.w3.org/2000/svg"
   xmlns:sodipodi="http://sodipodi.sourceforge.net/DTD/sodipodi-0.dtd"
   xmlns:inkscape="http://www.inkscape.org/namespaces/inkscape"
   enable-background="new 0 0 55.125 55"
   height="55px"
   version="1.1"
   viewBox="0 0 55.125 55"
   width="55.125px"
   x="0px"
   xml:space="preserve"
   y="0px"
   id="svg2454"
   sodipodi:version="0.32"
   inkscape:version="0.46"
   sodipodi:docname="domain-time2.svg"
   inkscape:output_extension="org.inkscape.output.svg.inkscape"><sodipodi:namedview
     inkscape:window-height="719"
     inkscape:window-width="641"
     inkscape:pageshadow="2"
     inkscape:pageopacity="0.0"
     guidetolerance="10.0"
     gridtolerance="10.0"
     objecttolerance="10.0"
     borderopacity="1.0"
     bordercolor="#666666"
     pagecolor="#ffffff"
     id="base"
     showgrid="false"
     inkscape:zoom="8.9818182"
     inkscape:cx="27.5625"
     inkscape:cy="27.5"
     inkscape:window-x="110"
     inkscape:window-y="26"
     inkscape:current-layer="svg2454" /><metadata
     id="metadata2469"><rdf:RDF><cc:Work
         rdf:about=""><dc:format>image/svg+xml</dc:format><dc:type
           rdf:resource="http://purl.org/dc/dcmitype/StillImage" /></cc:Work></rdf:RDF></metadata><defs
     id="defs2467"><inkscape:perspective
       id="perspective2471"
       inkscape:persp3d-origin="27.5625 : 18.333333 : 1"
       inkscape:vp_z="55.125 : 27.5 : 1"
       inkscape:vp_y="0 : 1000 : 0"
       inkscape:vp_x="0 : 27.5 : 1"
       sodipodi:type="inkscape:persp3d" /></defs><g
     id="domain-time"
     display="block"
     style="fill:#ffffff">
	<g
   id="Time_Domain"
   style="fill:#ffffff">
		<g
   id="g2458"
   style="fill:#ffffff">
			<path
   id="path2460"
   fill="#808284"
   d="M55,45c0,5.5-4.5,10-10,10H10C4.5,55,0,50.5,0,45V10C0,4.5,4.5,0,10,0h35c5.5,0,10,4.5,10,10V45z"
   style="fill:#ffffff" />
		</g>
		<line
   id="line2462"
   y2="27.5"
   y1="27.5"
   x2="51.012"
   x1="6.012"
   stroke-width="2.25"
   stroke-dasharray="5"
   stroke="#C6C8CA"
   fill="none"
   style="fill:#ffffff" />
		<path
   id="path2464"
   stroke-width="3.5"
   stroke-linecap="round"
   stroke="#FFFFFF"
   fill="none"
   d="M9.066,27.5    c2.32-6.917,4.666-13.834,9.255-13.834c9.179,0,9.179,27.668,18.358,27.668c4.59,0,6.986-6.917,9.332-13.834"
   style="fill:#ffffff" />
	</g>
</g><path
     style="fill:#808284;stroke:none;stroke-width:1px;stroke-linecap:butt;stroke-linejoin:miter;stroke-opacity:1;fill-opacity:1"
     d="M 35.801366,42.955202 C 33.876716,42.684617 32.03624,41.34428 30.561138,39.138979 C 29.095685,36.948105 28.042219,34.439344 25.781279,27.756073 C 23.352567,20.576869 22.217878,18.110491 20.59885,16.491464 C 19.214684,15.107298 17.631149,15.046197 16.197202,16.321629 C 14.742961,17.615109 13.108614,20.922996 11.301732,26.229966 C 10.920349,27.350122 10.506695,28.395793 10.382501,28.55368 C 9.4972813,29.679052 7.5733646,29.131677 7.4373108,27.715741 C 7.3794951,27.114026 7.5021785,26.68653 8.6455217,23.505693 C 10.456735,18.466811 11.801966,15.935644 13.636184,14.115353 C 15.125547,12.637298 16.534002,12.002024 18.321609,12.002024 C 20.079913,12.002024 21.51572,12.639601 22.956338,14.060098 C 25.04042,16.115073 26.418988,18.98041 28.998994,26.619703 C 31.550972,34.176007 32.665231,36.654683 34.275472,38.357276 C 35.354887,39.498597 36.392521,39.841685 37.576033,39.448585 C 38.29967,39.208231 39.348032,38.256092 40.057651,37.194735 C 41.218411,35.458616 42.712852,32.005894 44.032124,28.012197 C 44.453183,26.737564 44.744458,26.265526 45.268899,26.007878 C 46.016869,25.640415 46.745162,25.807336 47.306953,26.474987 C 47.900667,27.18057 47.854901,27.48634 46.655307,30.829005 C 44.692289,36.298955 43.251377,39.059402 41.414299,40.869558 C 39.73203,42.527168 37.81734,43.238629 35.801366,42.955204 L 35.801366,42.955202 z"
     id="path2493" /></svg>