<?xml version="1.0" encoding="UTF-8" standalone="no"?>
<svg
   xmlns:dc="http://purl.org/dc/elements/1.1/"
   xmlns:cc="http://creativecommons.org/ns#"
   xmlns:rdf="http://www.w3.org/1999/02/22-rdf-syntax-ns#"
   xmlns:svg="http://www.w3.org/2000/svg"
   xmlns="http://www.w3.org/2000/svg"
   xmlns:sodipodi="http://sodipodi.sourceforge.net/DTD/sodipodi-0.dtd"
   xmlns:inkscape="http://www.inkscape.org/namespaces/inkscape"
   enable-background="new 0 0 55.125 55"
   height="55px"
   version="1.1"
   viewBox="0 0 55.125 55"
   width="55.125px"
   x="0px"
   xml:space="preserve"
   y="0px"
   id="svg2"
   sodipodi:version="0.32"
   inkscape:version="0.46"
   sodipodi:docname="invert.svg"
   inkscape:output_extension="org.inkscape.output.svg.inkscape"><metadata
     id="metadata17"><rdf:RDF><cc:Work
         rdf:about=""><dc:format>image/svg+xml</dc:format><dc:type
           rdf:resource="http://purl.org/dc/dcmitype/StillImage" /></cc:Work></rdf:RDF></metadata><defs
     id="defs15"><inkscape:perspective
   sodipodi:type="inkscape:persp3d"
   inkscape:vp_x="0 : 27.5 : 1"
   inkscape:vp_y="0 : 1000 : 0"
   inkscape:vp_z="55.125 : 27.5 : 1"
   inkscape:persp3d-origin="27.5625 : 18.333333 : 1"
   id="perspective19" />
	

		
		
		
	</defs><sodipodi:namedview
     inkscape:window-height="975"
     inkscape:window-width="1680"
     inkscape:pageshadow="2"
     inkscape:pageopacity="0.0"
     guidetolerance="10.0"
     gridtolerance="10.0"
     objecttolerance="10.0"
     borderopacity="1.0"
     bordercolor="#666666"
     pagecolor="#ffffff"
     id="base"
     showgrid="false"
     inkscape:zoom="8.9818182"
     inkscape:cx="13.589828"
     inkscape:cy="27.5"
     inkscape:window-x="0"
     inkscape:window-y="25"
     inkscape:current-layer="svg2" /><g
     id="g6">
			<path
   d="M 55,45 C 55,50.5 50.5,55 45,55 L 10,55 C 4.5,55 0,50.5 0,45 L 0,10 C 0,4.5 4.5,0 10,0 L 45,0 C 50.5,0 55,4.5 55,10 L 55,45 z"
   id="path8"
   style="fill:#808284" />
		</g><g
     id="g2403"
     transform="translate(0,-0.4772258)"><line
       style="fill:none;stroke:#c6c8ca;stroke-width:2.25;stroke-dasharray:5"
       id="line10"
       y2="27.977226"
       y1="27.977226"
       x2="51.012001"
       x1="6.0120001" /><path
       style="fill:none;stroke:#ffffff;stroke-width:3;stroke-linecap:round"
       id="path12"
       d="M 8.7307727,15.205463 C 11.004337,10.920086 13.304409,6.6347065 17.98265,6.6347065 C 27.340151,6.6347065 27.706353,23.776222 37.063853,23.776222 C 41.743112,23.776222 44.094156,19.490843 46.394227,15.205463" /><path
       style="fill:none;stroke:#ffffff;stroke-width:3;stroke-linecap:round"
       id="path2401"
       d="M 8.7307731,40.748989 C 11.004337,45.034366 13.304409,49.319745 17.98265,49.319745 C 27.340151,49.319745 27.706353,32.17823 37.063853,32.17823 C 41.743112,32.17823 44.094156,36.463609 46.394227,40.748989" /></g></svg>
