<?xml version="1.0" encoding="UTF-8" standalone="no"?>
<!-- Created with Inkscape (http://www.inkscape.org/) -->

<svg
   xmlns:dc="http://purl.org/dc/elements/1.1/"
   xmlns:cc="http://creativecommons.org/ns#"
   xmlns:rdf="http://www.w3.org/1999/02/22-rdf-syntax-ns#"
   xmlns:svg="http://www.w3.org/2000/svg"
   xmlns="http://www.w3.org/2000/svg"
   version="1.1"
   width="55"
   height="55"
   viewBox="0 0 55 55"
   id="svg2"
   xml:space="preserve"><metadata
     id="metadata11"><rdf:RDF><cc:Work
         rdf:about=""><dc:format>image/svg+xml</dc:format><dc:type
           rdf:resource="http://purl.org/dc/dcmitype/StillImage" /><dc:title></dc:title></cc:Work></rdf:RDF></metadata><defs
     id="defs9" /><path
     d="m 17.666,7.884 v 32.841 c -2.587,-0.614 -7.914,-0.612 -10.755,1.764 -5.688,4.76 -0.695,10.109 5.815,7.456 3.705,-1.512 4.94,-3.937 4.94,-7.597 V 25.997 l 30.952,-3.516 v 12.974 c -4.212,-0.615 -7.915,-0.614 -10.758,1.764 -5.688,4.76 -0.695,10.109 5.815,7.454 3.705,-1.51 4.942,-3.936 4.942,-7.596 V 4.293 L 17.666,7.884 z m 30.952,7.976 -30.952,4.029 0,-5.225 30.953,-4.102 v 5.298 z"
     id="path5"
     style="fill:#000000;fill-opacity:1;stroke:#ffffff;stroke-width:3.5;stroke-opacity:1;display:inline" /><path
     d="m 17.944915,44.396187 a 6.1758475,4.5444913 0 1 1 -12.3516948,0 6.1758475,4.5444913 0 1 1 12.3516948,0 z"
     transform="matrix(0.83528021,-0.54982449,0.54982449,0.83528021,-22.937614,14.949106)"
     id="path2985"
     style="fill:#ffffff;fill-opacity:1;stroke:none" /><path
     d="m 17.944915,44.396187 a 6.1758475,4.5444913 0 1 1 -12.3516948,0 6.1758475,4.5444913 0 1 1 12.3516948,0 z"
     transform="matrix(0.83528021,-0.54982449,0.54982449,0.83528021,7.9416232,9.7054617)"
     id="path2985-3"
     style="fill:#ffffff;fill-opacity:1;stroke:none" /></svg>