<?xml version="1.0" encoding="UTF-8" standalone="no"?>
<!-- Created with Inkscape (http://www.inkscape.org/) -->

<svg
   xmlns:dc="http://purl.org/dc/elements/1.1/"
   xmlns:cc="http://creativecommons.org/ns#"
   xmlns:rdf="http://www.w3.org/1999/02/22-rdf-syntax-ns#"
   xmlns:svg="http://www.w3.org/2000/svg"
   xmlns="http://www.w3.org/2000/svg"
   version="1.1"
   width="55"
   height="55"
   viewBox="0 0 55 55"
   id="Layer_1"
   xml:space="preserve"><metadata
     id="metadata25"><rdf:RDF><cc:Work
         rdf:about=""><dc:format>image/svg+xml</dc:format><dc:type
           rdf:resource="http://purl.org/dc/dcmitype/StillImage" /><dc:title></dc:title></cc:Work></rdf:RDF></metadata><defs
     id="defs23" /><path
     d="m 9.0598237,48.998983 c 1.7421433,1.465885 2.6547503,2.650295 4.8116413,3.379478 1.347746,0.455634 2.963783,0.421607 4.266943,-0.14918 2.387204,-1.0456 4.052502,-3.086698 5.221839,-5.415792 0.984768,-1.961465 0.236923,-4.519328 1.379959,-6.392983 1.215495,-1.992429 4.132563,-2.375251 5.624607,-4.169967 0.988907,-1.189515 1.531789,-2.535929 1.357664,-4.072992 -0.219922,-1.941326 -1.628776,-3.269326 -3.006255,-4.654846 -0.647838,-0.651619 -1.333514,-1.293497 -2.133472,-1.745568 -1.255101,-0.709282 -2.633076,-1.525364 -4.072991,-1.454639 -1.285389,0.06313 -2.545489,0.775687 -3.491136,1.648591 -1.47898,1.365211 -1.427519,3.988195 -3.006255,5.236703 -1.692712,1.338643 -4.079977,1.169979 -6.2064628,1.842543 -1.7021196,0.538347 -3.4252484,1.43238 -4.5578713,2.812304 -1.116164,1.359872 -1.943009,3.189364 -1.8425439,4.945775 0.1139276,1.99177 1.7148212,4.55691 3.1329586,5.960125 0.7912585,0.782932 1.6627716,1.507996 2.5213751,2.230448 z"
     id="path3082"
     style="fill:#ffffff;fill-opacity:1;stroke:#000000;stroke-width:0.52367032px;stroke-linecap:butt;stroke-linejoin:miter;stroke-opacity:1" /><path
     d="m 11.110488,37.55782 7.726167,7.36074 -1.461707,1.618318 -7.726167,-7.308536 z"
     id="path3084"
     style="fill:#000000;fill-opacity:1;stroke:#000000;stroke-width:0.52367032px;stroke-linecap:butt;stroke-linejoin:miter;stroke-opacity:1" /><path
     d="m 22.595331,29.883857 c -1.558184,-0.09014 -3.500449,0.929491 -4.019695,2.401376 -0.567803,1.609527 0.297969,3.947436 1.77493,4.802753 1.359107,0.787066 3.52846,0.320316 4.646141,-0.783058 0.969167,-0.956761 1.221331,-2.749219 0.730854,-4.019695 -0.473819,-1.227325 -1.818816,-2.325393 -3.13223,-2.401376 z"
     id="path3086"
     style="fill:#000000;fill-opacity:1;stroke:#000000;stroke-width:0.52367032px;stroke-linecap:butt;stroke-linejoin:miter;stroke-opacity:1" /><path
     d="m 23.691611,29.570634 c 0.208815,0.104408 2.662396,2.766803 2.662396,2.766803 L 44.25992,13.02202 41.858544,11.142682 z"
     id="path3088"
     style="fill:#000000;fill-opacity:1;stroke:#000000;stroke-width:0.52367032px;stroke-linecap:butt;stroke-linejoin:miter;stroke-opacity:1" /><path
     d="m 42.067359,10.881663 -0.208815,-0.574242 c 0,0 6.890905,-8.4570204 7.09972,-8.3526125 0.208816,0.1044072 3.915288,3.8630833 3.915288,3.8630833 l -8.091594,6.9953132 z"
     id="path3090"
     style="fill:#ffffff;fill-opacity:1;stroke:#000000;stroke-width:0.52367032px;stroke-linecap:butt;stroke-linejoin:miter;stroke-opacity:1" /><g
     transform="matrix(0.51994903,0,0,0.53787706,43.465256,33.660088)"
     id="g3924"
     style="stroke:#ffffff;stroke-width:0.33000001;stroke-miterlimit:4;stroke-opacity:1;stroke-dasharray:none"><path
       d="M -55.06664,16.188289 C -3.1290095,-34.852147 0.36008238,-39.338123 0.36008238,-39.338123"
       id="path3094"
       style="fill:none;stroke:#ffffff;stroke-width:0.33000001;stroke-linecap:butt;stroke-linejoin:miter;stroke-miterlimit:4;stroke-opacity:1;stroke-dasharray:none" /><path
       d="M -58.004298,13.289018 C -6.0666671,-37.751419 -2.5775751,-42.237395 -2.5775751,-42.237395"
       id="path3094-0"
       style="fill:none;stroke:#ffffff;stroke-width:0.33000001;stroke-linecap:butt;stroke-linejoin:miter;stroke-miterlimit:4;stroke-opacity:1;stroke-dasharray:none" /><path
       d="M -55.64472,15.252708 C -3.7070882,-35.787728 -0.21799625,-40.273704 -0.21799625,-40.273704"
       id="path3094-7"
       style="fill:none;stroke:#ffffff;stroke-width:0.33000001;stroke-linecap:butt;stroke-linejoin:miter;stroke-miterlimit:4;stroke-opacity:1;stroke-dasharray:none" /><path
       d="M -57.121425,13.778866 C -5.1837944,-37.26157 -1.6947024,-41.747546 -1.6947024,-41.747546"
       id="path3094-70"
       style="fill:none;stroke:#ffffff;stroke-width:0.33000001;stroke-linecap:butt;stroke-linejoin:miter;stroke-miterlimit:4;stroke-opacity:1;stroke-dasharray:none" /><path
       d="M -56.430768,14.569212 C -4.4931372,-36.471224 -1.0040451,-40.9572 -1.0040451,-40.9572"
       id="path3094-6"
       style="fill:none;stroke:#ffffff;stroke-width:0.33000001;stroke-linecap:butt;stroke-linejoin:miter;stroke-miterlimit:4;stroke-opacity:1;stroke-dasharray:none" /><path
       d="M -54.280592,16.924493 C -2.3429607,-34.115943 1.1461312,-38.601919 1.1461312,-38.601919"
       id="path3094-4"
       style="fill:none;stroke:#ffffff;stroke-width:0.33000001;stroke-linecap:butt;stroke-linejoin:miter;stroke-miterlimit:4;stroke-opacity:1;stroke-dasharray:none" /></g></svg>